<?xml version="1.0" standalone="no"?>
<!DOCTYPE svg PUBLIC "-//W3C//DTD SVG 20010904//EN"
 "http://www.w3.org/TR/2001/REC-SVG-20010904/DTD/svg10.dtd">
<svg version="1.0" xmlns="http://www.w3.org/2000/svg"
 width="612.000000pt" height="442.000000pt" viewBox="0 0 612.000000 442.000000"
 preserveAspectRatio="xMidYMid meet">

<g transform="translate(0.000000,442.000000) scale(0.100000,-0.100000)"
fill="#000000" stroke="none">
<path d="M2898 3704 c-74 -13 -189 -38 -254 -58 -65 -19 -175 -51 -244 -71
-69 -20 -147 -49 -175 -64 -54 -30 -287 -131 -303 -131 -11 0 -150 -151 -175
-190 -9 -14 -19 -50 -23 -80 -3 -30 -19 -106 -35 -168 -25 -103 -35 -125 -105
-235 -175 -275 -261 -406 -312 -476 -30 -40 -68 -101 -86 -134 -17 -33 -43
-73 -58 -88 -24 -26 -32 -29 -95 -29 -80 0 -128 -23 -139 -66 -5 -17 3 -68 20
-137 24 -93 27 -122 21 -183 -8 -84 3 -130 40 -164 15 -15 25 -35 25 -52 0
-16 6 -57 14 -91 36 -155 49 -239 52 -322 3 -82 5 -92 29 -112 30 -26 64 -23
135 11 44 20 45 22 50 76 l6 55 17 -38 c10 -20 19 -37 21 -37 2 0 43 39 90 86
67 67 96 105 128 168 45 89 81 204 98 309 12 75 28 107 67 133 15 9 45 34 67
54 29 27 59 43 103 54 83 22 102 20 125 -9 13 -17 29 -25 49 -25 41 0 45 -20
19 -90 -18 -49 -21 -71 -16 -119 6 -50 2 -74 -25 -157 -17 -55 -57 -148 -89
-209 -57 -109 -96 -216 -86 -240 2 -7 29 -16 58 -19 48 -6 61 -3 114 23 84 44
87 47 81 94 -9 69 91 367 149 442 16 21 45 69 64 108 l35 71 72 17 c78 19 115
36 181 81 24 17 46 28 49 25 2 -3 11 -54 18 -113 11 -95 18 -117 57 -188 l43
-81 0 -156 0 -156 -40 -77 c-34 -65 -38 -78 -25 -86 25 -16 102 -24 130 -13
42 16 138 96 139 116 1 9 -8 50 -19 90 -12 39 -26 134 -32 209 -12 133 -11
139 10 190 19 47 22 72 23 208 1 203 10 308 29 320 37 23 137 10 301 -39 90
-28 193 -55 229 -62 39 -7 81 -23 105 -40 53 -36 194 -50 244 -25 17 9 76 23
130 30 55 8 121 24 148 36 30 13 57 19 73 15 37 -10 137 -73 144 -91 3 -9 6
-40 6 -70 0 -47 3 -54 20 -54 14 0 21 9 25 38 4 20 8 42 10 47 4 12 8 -49 5
-88 -2 -35 27 -48 46 -22 12 17 14 12 14 -42 0 -99 -27 -216 -74 -316 -58
-124 -145 -266 -218 -356 -65 -79 -65 -87 -2 -102 67 -15 99 -11 145 21 24 16
60 34 80 40 31 9 37 15 42 46 6 35 63 155 98 205 10 14 27 49 38 79 11 29 42
90 70 134 27 45 65 116 86 158 31 64 59 98 71 86 8 -9 44 -296 44 -354 0 -150
-22 -209 -109 -303 -17 -18 -31 -37 -31 -43 0 -19 73 -40 120 -34 46 5 188 41
196 49 10 9 16 131 14 257 -2 188 25 492 51 549 28 63 24 93 -23 181 l-43 78
40 118 c46 137 51 210 21 358 -27 128 -14 220 69 481 l34 110 3 -280 c2 -154
3 -395 3 -535 0 -211 3 -264 17 -310 9 -30 20 -95 24 -145 3 -49 10 -96 14
-104 4 -8 27 -14 56 -16 37 -1 54 3 72 18 29 27 30 92 1 142 -16 27 -19 39
-10 48 17 17 14 41 -15 110 -18 41 -29 92 -35 152 -4 50 -15 131 -24 180 -12
68 -18 197 -24 535 -9 480 -14 527 -64 628 -36 75 -81 116 -183 168 -71 36
-80 38 -217 47 -78 5 -275 10 -438 12 -163 1 -302 6 -309 10 -7 5 -246 9 -530
10 -495 2 -522 1 -652 -21z"/>
</g>
</svg>
